<svg xmlns="http://www.w3.org/2000/svg" width="15.955" height="24" viewbox="0 0 16 24"><path d="M13.03 3.838s.34 1.438-.745 1.638c-.756.134-1.976-.615-2.59-1.362-.756-.922-.66-1.647-.072-2.29.884-.978 2.397-.6 2.397-.6S9.248-1.209 6.362.783c-2.571 1.77-1.834 4.183.487 6.288 2.09 1.902.42 3.988-1.686 3.717-1.444-.184-2.035-1.343-1.688-2.054.299-.608 1.335-.982 1.335-.982s-1.19-.484-2.592.044C.96 8.27-.078 9.312.005 11.917V24s1.3-1.604 2.83-3.236c1.713-1.84 2.495-3.084 4.254-2.938 3.328.205 5.735-1.273 7.37-3.645 3.142-4.563.681-9.661-1.43-10.343" style="fill:#e0311d;fill-opacity:1;stroke-width:.66479"/></svg>